<?xml version="1.0" standalone="no"?>
<!DOCTYPE svg PUBLIC "-//W3C//DTD SVG 20010904//EN"
 "http://www.w3.org/TR/2001/REC-SVG-20010904/DTD/svg10.dtd">
<svg version="1.0" xmlns="http://www.w3.org/2000/svg"
 width="300.000000pt" height="164.000000pt" viewBox="0 0 300.000000 164.000000"
 preserveAspectRatio="xMidYMid meet">
<metadata>
Created by potrace 1.10, written by Peter Selinger 2001-2011
</metadata>
<g transform="translate(0.000000,164.000000) scale(0.100000,-0.100000)"
fill="#000000" stroke="none">
<path d="M1424 1462 c-60 -34 -69 -41 -61 -48 4 -4 12 -3 18 3 6 6 18 9 26 6
8 -3 19 0 23 8 15 23 21 3 9 -25 -7 -14 -20 -26 -29 -26 -10 0 -36 -18 -59
-41 -36 -35 -45 -38 -58 -27 -15 12 -16 9 -11 -29 4 -24 2 -43 -4 -45 -11 -4
11 -58 23 -58 5 0 6 -8 2 -17 -3 -10 -3 -15 2 -11 10 10 45 -60 38 -78 -3 -8
0 -14 6 -14 6 0 16 12 21 26 7 16 16 24 24 21 14 -6 26 12 26 36 0 7 -7 4 -14
-5 -7 -10 -16 -14 -20 -10 -4 4 -18 7 -29 7 -28 0 -35 37 -13 70 12 17 12 25
3 28 -22 7 -13 40 21 72 17 18 32 37 32 44 0 6 4 11 9 11 5 0 24 12 41 26 34
29 53 25 27 -4 -10 -10 -17 -26 -17 -35 0 -10 -5 -14 -15 -11 -11 4 -15 0 -15
-16 0 -22 1 -23 20 -5 11 10 20 24 20 32 0 7 5 13 10 13 6 0 10 -19 10 -42 1
-42 1 -43 15 -18 14 25 14 24 8 -10 -3 -19 -9 -37 -12 -40 -8 -6 -13 -38 -12
-72 0 -16 -4 -28 -8 -28 -14 0 -21 -44 -9 -51 15 -9 28 -2 28 14 0 7 -4 6 -10
-3 -5 -8 -10 -10 -10 -4 0 6 7 17 15 24 12 10 15 9 15 -8 0 -13 9 -22 26 -26
17 -5 24 -12 20 -21 -21 -52 -21 -51 -1 -35 11 10 41 15 82 16 64 0 72 -3 52
-23 -8 -8 -6 -11 7 -10 12 2 20 -7 24 -29 9 -42 18 -54 40 -54 14 0 18 -5 13
-17 -6 -15 -5 -16 9 -3 14 14 13 16 -15 30 -17 8 -33 21 -35 28 -4 12 0 12 19
1 36 -18 73 -49 60 -49 -6 0 -11 -5 -11 -11 0 -6 8 -9 18 -7 9 2 25 -7 35 -19
10 -13 24 -23 31 -23 7 0 21 -8 32 -18 19 -18 27 -22 43 -22 5 0 11 -8 14 -17
9 -27 53 -102 73 -124 16 -18 16 -19 -1 -19 -10 0 -16 3 -12 6 7 7 -24 44 -36
44 -5 0 -3 -8 4 -17 13 -16 12 -17 -3 -4 -10 7 -16 16 -14 20 2 3 -2 15 -10
26 -8 10 -14 14 -14 8 0 -6 -15 3 -33 20 -19 18 -32 35 -30 40 2 4 -3 7 -11 7
-9 0 -16 5 -16 10 0 6 5 10 10 10 6 0 10 5 10 11 0 8 -4 8 -13 1 -7 -6 -31 -8
-55 -5 -45 6 -58 23 -17 23 14 0 25 3 25 8 0 4 -24 6 -52 5 -29 -2 -47 0 -40
3 6 3 12 10 12 15 0 12 -103 7 -112 -6 -5 -6 -18 2 -32 20 -15 19 -24 24 -22
14 1 -10 8 -24 15 -33 14 -17 7 -36 -15 -36 -8 0 -14 -4 -14 -9 0 -5 -10 -12
-22 -14 l-23 -4 22 -2 c16 -1 21 -5 16 -17 -4 -11 -2 -15 6 -13 7 3 12 8 11
13 -1 4 11 21 26 37 28 29 86 41 99 19 3 -5 43 -28 88 -50 73 -35 92 -51 166
-135 45 -52 96 -114 112 -137 29 -43 37 -78 19 -78 -5 0 -10 -7 -10 -15 0 -8
3 -15 8 -15 4 0 12 -10 17 -22 16 -35 40 -33 71 7 23 31 25 39 15 58 -24 46
-39 69 -50 80 -6 6 -11 18 -11 27 0 8 -16 42 -36 75 -20 33 -50 86 -66 117
-18 36 -41 65 -63 78 -19 12 -35 26 -35 30 0 5 -35 35 -77 66 -43 31 -98 78
-123 105 -28 30 -57 50 -78 54 -23 5 -32 3 -30 -5 4 -14 -28 -37 -38 -27 -4 3
-1 13 5 21 14 16 8 21 -37 31 -44 9 -56 34 -31 65 21 28 27 124 8 136 -6 3 -8
17 -5 30 7 27 -20 80 -50 100 -17 12 -24 11 -50 -4z m-96 -235 c2 -10 -3 -17
-12 -17 -10 0 -16 9 -16 21 0 24 23 21 28 -4z"/>
<path d="M1449 1274 c-1 -5 -1 -13 0 -18 4 -20 -11 -42 -30 -43 -13 -1 -19 3
-16 11 4 10 -1 12 -14 9 -14 -4 -19 -13 -17 -27 2 -16 9 -20 31 -18 21 3 27
-1 27 -17 0 -11 5 -23 10 -26 7 -4 9 2 5 17 -4 16 -1 29 8 37 9 7 13 21 9 33
-3 14 -1 19 6 14 7 -4 12 -3 12 2 0 13 -30 37 -31 26z"/>
<path d="M1222 1177 c-5 -6 -13 -22 -17 -35 -5 -16 -12 -21 -25 -17 -19 6 -30
-17 -30 -68 0 -15 -6 -30 -14 -33 -8 -3 -12 -12 -9 -20 4 -11 9 -12 19 -3 8 6
11 15 8 20 -3 5 2 12 10 15 9 3 13 10 10 15 -11 19 8 30 22 12 12 -16 13 -15
14 13 0 53 41 68 65 24 13 -22 14 -23 15 -5 1 17 3 17 12 -5 7 -16 12 -20 15
-12 3 7 -4 23 -16 35 -14 16 -18 30 -14 46 5 18 2 22 -13 20 -10 -2 -24 0 -30
4 -7 4 -16 1 -22 -6z"/>
<path d="M1237 1063 c-4 -3 -7 -22 -7 -42 0 -33 -3 -37 -37 -48 -23 -7 -42 -8
-49 -2 -6 5 -15 5 -19 1 -5 -4 -5 -2 -2 4 11 19 -19 37 -40 26 -22 -12 -83
-80 -83 -93 0 -5 -11 -11 -25 -15 -14 -3 -25 -13 -25 -23 0 -9 -14 -25 -32
-36 -71 -45 -78 -51 -78 -62 0 -7 -7 -10 -15 -7 -8 3 -26 -6 -42 -22 -17 -17
-23 -29 -15 -32 7 -2 12 -12 12 -22 0 -10 8 -20 18 -24 9 -3 25 -11 35 -18 23
-17 50 0 57 37 3 15 13 33 23 39 10 6 37 29 60 51 23 22 74 59 112 83 39 23
90 58 115 77 32 24 50 31 60 25 11 -7 12 -12 4 -20 -13 -13 -7 -50 7 -50 5 0
9 -7 9 -15 0 -8 6 -15 13 -15 20 0 35 -45 30 -94 -2 -26 1 -55 7 -65 8 -16 5
-23 -19 -40 -16 -12 -39 -21 -51 -21 -27 0 -70 -22 -95 -50 -11 -12 -39 -33
-62 -47 -43 -25 -58 -53 -66 -123 -3 -19 -7 -42 -9 -50 -22 -65 -38 -132 -33
-139 3 -5 0 -15 -7 -23 -7 -7 -14 -26 -15 -42 -1 -16 -13 -51 -26 -78 -17 -33
-20 -48 -11 -48 7 0 15 -4 18 -8 3 -5 -7 -7 -23 -4 -17 2 -32 -2 -40 -12 -16
-19 0 -22 31 -5 16 9 23 8 29 -2 7 -12 9 -12 9 -1 0 10 9 12 31 7 40 -9 49 4
49 69 0 41 6 57 38 100 45 59 71 107 104 191 l24 60 114 13 c69 7 128 19 150
31 19 10 62 21 95 25 33 4 67 9 76 12 39 11 99 -153 99 -268 0 -26 5 -50 10
-53 6 -3 7 -18 4 -32 -5 -19 -4 -24 6 -18 9 6 10 3 1 -14 -7 -11 -10 -21 -9
-21 2 0 36 -2 76 -3 71 -3 73 -2 78 23 3 14 7 31 9 37 2 7 -6 25 -19 40 -40
49 -53 86 -60 175 -4 48 -15 115 -25 150 -64 216 -71 230 -127 233 -41 3 -57
20 -43 46 15 29 11 59 -6 52 -9 -3 -14 -7 -11 -10 2 -2 -7 -16 -20 -30 -13
-14 -21 -30 -18 -35 4 -6 0 -15 -7 -20 -10 -7 -8 -9 8 -5 15 3 20 1 16 -8 -3
-10 2 -12 16 -8 18 4 20 2 14 -13 -6 -17 -5 -18 12 -4 10 8 16 10 12 4 -8 -14
9 -22 38 -19 14 1 20 -5 21 -21 1 -13 9 -31 18 -40 12 -12 14 -20 6 -29 -8 -9
-7 -14 4 -18 8 -3 17 -21 21 -39 4 -18 12 -39 17 -45 7 -9 7 -18 -1 -27 -9
-11 -9 -16 2 -23 22 -13 27 -51 8 -58 -15 -6 -14 -8 2 -19 9 -7 17 -23 17 -35
0 -18 -5 -22 -27 -19 -32 4 -44 28 -14 28 12 0 21 5 21 10 0 6 -6 10 -13 10
-7 0 -18 9 -24 19 -11 17 -9 21 7 26 11 4 20 9 20 13 0 7 -30 25 -61 37 -9 4
-26 23 -37 43 -12 20 -22 31 -22 24 0 -7 -11 -11 -28 -10 -15 1 -33 -2 -40 -6
-7 -4 -19 -1 -27 8 -14 13 -13 17 11 29 17 9 23 17 15 21 -6 4 -11 3 -11 -3 0
-6 -6 -8 -14 -5 -8 3 -19 -3 -26 -15 -15 -28 -33 -27 -25 2 6 21 6 22 -10 2
-14 -17 -14 -20 0 -28 23 -12 8 -29 -15 -17 -24 13 -52 14 -32 1 10 -6 10 -10
-3 -21 -12 -10 -15 -10 -15 0 0 10 -3 10 -14 1 -12 -10 -170 -40 -214 -41 -7
0 -28 -16 -46 -35 -20 -20 -40 -33 -48 -30 -8 3 -27 -6 -41 -21 -15 -15 -27
-22 -27 -17 0 5 3 13 7 17 4 3 9 17 11 29 2 12 5 29 6 37 2 8 12 14 23 13 16
-2 19 3 16 20 -3 17 4 26 31 41 20 11 36 23 36 28 0 5 5 6 10 3 6 -3 10 -1 10
4 0 6 6 11 14 11 8 0 33 11 57 24 24 14 47 22 52 19 6 -3 7 -1 4 4 -4 6 0 13
8 17 8 3 15 12 15 19 0 17 34 49 43 40 4 -3 7 -1 7 5 0 7 -9 12 -19 12 -28 0
-37 20 -12 27 12 3 21 10 21 15 0 5 4 7 9 3 5 -3 12 -1 16 5 3 5 -3 10 -14 10
-11 0 -23 -4 -26 -10 -9 -15 -25 -12 -25 4 0 17 30 29 51 21 11 -4 14 9 14 64
0 38 -3 67 -7 65 -4 -3 -17 0 -28 6 -13 7 -20 7 -20 0 0 -5 6 -10 14 -10 8 0
17 -7 20 -16 10 -26 7 -27 -19 -10 -15 10 -25 12 -25 6 0 -6 -4 -8 -10 -5 -5
3 -10 -1 -10 -11 0 -13 -3 -14 -15 -4 -8 7 -15 23 -15 37 0 19 4 23 19 18 11
-3 23 0 27 6 5 9 2 10 -9 6 -11 -4 -17 -1 -17 8 0 9 -10 15 -24 15 -26 0 -35
15 -42 70 -5 38 -8 43 -17 33z m-113 -112 c5 -1 1 -10 -9 -21 -10 -11 -21 -17
-25 -15 -15 9 -41 -7 -36 -21 3 -8 0 -14 -7 -14 -7 0 -22 -8 -33 -17 -11 -10
-31 -27 -44 -38 -25 -20 -25 -20 -10 0 22 29 38 45 45 45 11 0 34 27 29 33 -3
3 4 8 15 12 11 3 23 14 26 25 3 10 13 17 23 15 9 -2 21 -4 26 -4z m261 -97
c13 -14 14 -19 3 -25 -10 -7 -10 -9 0 -9 6 0 12 -5 12 -11 0 -8 -6 -7 -17 2
-13 11 -17 11 -20 2 -7 -20 -19 -15 -19 7 0 15 5 18 19 14 16 -5 17 -3 8 15
-14 25 -8 27 14 5z m-557 -126 c-7 -13 -11 -30 -10 -38 3 -13 2 -13 -7 0 -16
23 -13 48 7 53 9 3 18 5 20 6 1 0 -3 -9 -10 -21z m312 -353 c0 -8 -4 -15 -10
-15 -5 0 -10 -9 -10 -19 0 -22 -56 -132 -73 -143 -28 -18 -41 -6 -14 13 15 11
27 25 27 31 0 7 -5 6 -14 -1 -9 -8 -16 -8 -20 -2 -4 5 10 22 30 37 20 16 31
30 25 32 -6 2 -18 -2 -27 -8 -29 -25 -27 0 3 28 16 16 33 36 36 46 8 20 47 21
47 1z m681 -130 c9 6 56 -43 72 -74 4 -9 0 -6 -9 7 -9 12 -23 22 -31 22 -7 0
-16 7 -19 15 -7 17 -35 15 -58 -4 -22 -19 -20 1 4 32 11 14 20 32 20 41 0 9
-8 16 -20 16 -27 0 -25 18 3 22 19 3 22 -2 25 -40 2 -24 7 -40 13 -37z m34
-68 c5 -4 -3 -6 -20 -5 -20 2 -30 -2 -33 -13 -2 -14 3 -15 38 -9 22 4 40 3 40
-1 0 -5 -3 -9 -7 -9 -5 -1 -27 -5 -51 -9 -33 -7 -42 -6 -38 4 2 7 -1 18 -7 24
-8 8 -5 17 12 35 22 23 25 24 40 8 9 -9 20 -21 26 -25z"/>
</g>
</svg>
